<svg viewBox="0 0 128 128" fill="none" xmlns="http://www.w3.org/2000/svg">
  <circle cx="64" cy="64" r="64" fill="#05F"/>
  <g transform="matrix(.195 0 0 .195 16 16)" fill="#fff">
    <mask id="QDAY-128x128_svg__a">
      <path fill-rule="evenodd" clip-rule="evenodd" d="m327.1 337.169-37.888-67.774 78.182-1.082c11.736-53.505-11.67-110.693-61.638-139.542-61.794-35.676-140.808-14.504-176.485 47.289-35.676 61.793-14.504 140.808 47.289 176.484 49.507 28.583 110.068 20.677 150.54-15.375Zm36.954 18.02c-52.123 56.031-137.78 70.813-206.873 30.921-80.332-46.379-107.855-149.098-61.476-229.429 46.379-80.332 149.099-107.855 229.43-61.476 69.709 40.247 99.653 122.919 76.045 196.572l32.738 61.165-69.864 2.247Z"/>
    </mask>
    <path fill-rule="evenodd" clip-rule="evenodd" d="m327.1 337.169-37.888-67.774 78.182-1.082c11.736-53.505-11.67-110.693-61.638-139.542-61.794-35.676-140.808-14.504-176.485 47.289-35.676 61.793-14.504 140.808 47.289 176.484 49.507 28.583 110.068 20.677 150.54-15.375Zm36.954 18.02c-52.123 56.031-137.78 70.813-206.873 30.921-80.332-46.379-107.855-149.098-61.476-229.429 46.379-80.332 149.099-107.855 229.43-61.476 69.709 40.247 99.653 122.919 76.045 196.572l32.738 61.165-69.864 2.247Z"/>
    <path d="m327.1 337.169.573.644.516-.46-.337-.604-.752.42Zm-37.888-67.774-.012-.861-1.445.02.705 1.262.752-.421Zm78.182-1.082.012.861.683-.009.147-.667-.842-.185Zm-61.638-139.542.43-.746-.43.746ZM129.271 176.06l-.746-.431.746.431Zm47.289 176.484-.431.746.431-.746Zm-19.379 33.566.43-.746-.43.746Zm206.873-30.921-.027-.861-.359.012-.244.263.63.586ZM95.705 156.681l-.746-.431.746.431Zm229.43-61.476.431-.746-.431.746Zm76.045 196.572-.82-.263-.111.348.172.322.759-.407Zm32.738 61.165.028.861 1.386-.045-.654-1.222-.76.406Zm-106.066-16.193-37.888-67.774-1.504.841 37.888 67.774 1.504-.841Zm-38.628-66.492 78.182-1.083-.024-1.722-78.182 1.082.024 1.723Zm79.012-1.759c11.814-53.861-11.747-111.431-62.05-140.473l-.861 1.492c49.634 28.656 72.886 85.463 61.228 138.611l1.683.37Zm-62.05-140.473c-62.205-35.914-141.747-14.601-177.661 47.604l1.492.862c35.439-61.382 113.927-82.413 175.308-46.974l.861-1.492Zm-177.661 47.604c-35.914 62.206-14.601 141.747 47.604 177.661l.862-1.492c-61.382-35.438-82.412-113.926-46.974-175.307l-1.492-.862Zm47.604 177.661c49.838 28.774 110.803 20.813 151.544-15.477l-1.146-1.287c-40.203 35.812-100.361 43.664-149.536 15.272l-.862 1.492Zm-19.379 33.566c69.449 40.097 155.544 25.238 207.935-31.08l-1.261-1.173c-51.857 55.743-137.074 70.448-205.813 30.761l-.861 1.492ZM94.96 156.25c-46.618 80.743-18.953 183.989 61.79 230.606l.861-1.492C77.692 339.223 50.31 237.031 96.451 157.111l-1.492-.861Zm230.606-61.79c-80.744-46.618-183.99-18.953-230.607 61.79l1.492.861c46.142-79.919 148.334-107.301 228.253-61.16l.862-1.492Zm76.435 197.58c23.728-74.031-6.368-157.127-76.435-197.58l-.862 1.491c69.351 40.04 99.142 122.288 75.656 195.563l1.641.526Zm-1.58.144 32.738 61.164 1.519-.812-32.738-61.165-1.519.813Zm33.47 59.897-69.864 2.247.055 1.722 69.864-2.247-.055-1.722Z" mask="url(#QDAY-128x128_svg__a)"/>
  </g>
</svg>
