<svg viewBox="0 0 401 117" fill="none" xmlns="http://www.w3.org/2000/svg">
  <path fill-rule="evenodd" clip-rule="evenodd" d="M88.428 92.105C80.477 99.193 69.992 103.5 58.5 103.5c-24.853 0-45-20.147-45-45s20.147-45 45-45 45 20.147 45 45c0 3.306-.357 6.53-1.033 9.633l-27.23.377L88.43 92.105Zm12.86 6.288C90.61 109.842 75.391 117 58.5 117 26.191 117 0 90.809 0 58.5S26.191 0 58.5 0 117 26.191 117 58.5c0 6.21-.968 12.194-2.76 17.81l11.4 21.3-24.352.783Z" fill="#05F"/>
  <path d="M303.863 29h20.742l20.942 25.23c2.094 2.593 4.787 5.186 6.781 8.676 1.995-3.49 4.687-6.083 6.881-8.676L380.151 29h20.743l-33.707 36.798c-2.194 2.393-7.678 7.778-7.678 11.867v19.546h-14.261V77.665c0-4.188-5.585-9.574-7.679-11.867L303.863 29ZM294.294 42.462l28.022 54.749h-15.357l-8.676-16.853h-50.261l-8.676 16.853h-15.258l27.923-54.748c4.288-8.477 9.474-14.46 21.141-14.46 11.668 0 16.754 5.983 21.142 14.46Zm-2.593 25.23-11.468-22.337c-1.496-2.892-3.391-4.688-7.081-4.688-3.689 0-5.584 1.795-7.08 4.688l-11.568 22.338h37.197ZM137.314 97.21V29h56.045c24.432 0 32.809 11.667 32.809 34.105 0 22.438-8.377 34.106-32.809 34.106h-56.045Zm74.295-34.105c0-13.063-1.995-20.244-18.25-20.244h-41.784V83.25h41.784c16.255 0 18.25-7.08 18.25-20.145Z" fill="#05F"/>
</svg>
